<svg width="609" height="499" viewBox="0 0 609 499" fill="none" xmlns="http://www.w3.org/2000/svg">
<path d="M164.449 7.20516C92.5679 26.2778 74.3772 96.0638 49.0205 170.921C23.6638 245.779 -45.2403 381.161 83.3072 420.85C211.855 460.539 319.345 341.473 467.737 322.841C616.129 304.209 623.846 163.645 556.595 120.98C489.345 78.3142 407.542 73.2428 324.747 32.6721C241.952 -7.89861 203.696 -3.15801 164.449 7.20516Z" fill="#152055"/>
<path d="M423.206 373.333C423.206 373.333 413.394 360.876 412.071 361.757C410.748 362.639 410.307 376.09 410.307 376.09C410.307 376.09 403.141 383.697 400.495 394.721C397.85 405.746 411.63 412.471 411.851 416.881C412.071 421.291 391.124 464.507 391.565 480.493C392.006 496.479 409.756 496.038 451.099 496.038C492 496.038 490.236 481.816 482.629 463.625C475.022 445.435 455.949 423.606 456.39 415.999C456.831 408.392 464.438 401.005 464.438 395.603C464.438 390.201 457.272 376.09 457.272 376.09C457.272 376.09 456.831 365.726 455.508 363.962C454.186 362.198 443.051 374.215 443.051 374.215L423.206 373.333Z" fill="#414042"/>
<path d="M438.309 496.479C438.309 496.479 477.446 502.212 490.345 456.239C503.244 410.266 480.092 399.352 479.651 418.535C479.21 437.828 479.872 487.439 438.309 488.541" fill="#414042"/>
<path d="M442.167 497.251C439.742 497.251 438.309 497.03 438.309 497.03L438.419 495.928C438.86 495.928 477.226 500.999 489.794 456.019C497.511 428.677 492.219 415.007 487.92 411.258C486.486 410.046 484.943 409.605 483.62 410.266C481.525 411.148 480.313 414.235 480.202 418.535V420.85C479.761 440.915 478.879 487.99 438.419 488.982V487.88C477.887 486.888 478.769 442.238 479.21 420.85V418.535C479.32 413.794 480.864 410.377 483.289 409.274C485.053 408.502 486.927 408.943 488.691 410.487C494.755 415.779 497.731 431.985 490.896 456.349C480.423 493.613 452.53 497.251 442.167 497.251Z" fill="white"/>
<path d="M306.339 276.317C308.985 277.64 314.718 278.742 321.774 280.286C287.156 292.413 248.129 277.088 248.129 277.088C255.074 277.199 260.807 277.309 263.674 275.655C271.832 270.915 267.753 226.265 267.753 226.265H295.866C295.866 226.154 298.181 272.238 306.339 276.317Z" fill="#FFE8D2"/>
<path d="M220.898 397.588C220.346 399.793 219.685 401.777 219.024 403.541C212.078 422.063 183.304 476.965 171.728 492.51L160.703 485.454C160.703 485.454 191.131 301.894 207.448 286.349C218.031 276.207 235.12 276.648 248.129 276.978C248.129 276.978 287.156 292.303 321.773 280.175C336.657 283.373 356.942 288.003 363.887 298.587C374.03 314.131 406.553 396.155 398.395 416.44C391.118 434.631 368.077 451.278 363.336 454.475C368.297 476.965 366.974 496.7 342.169 496.7C290.684 496.7 233.135 496.7 233.135 496.7C233.135 496.7 204.691 495.707 207.448 468.587C209.542 448.301 217.149 413.684 220.898 397.588ZM222.882 389.099C222.662 389.76 222 392.847 220.898 397.588C221.669 394.942 222.331 392.076 222.882 389.099ZM363.116 406.297L348.453 378.626C347.35 383.697 346.579 388.658 346.138 392.847C345.587 398.58 349.666 410.266 354.186 423.827L363.116 406.297Z" fill="#E694C4"/>
<path d="M166.393 498.144C161.234 498.144 143.825 494.857 141.998 494.539C138.559 495.493 122.761 499.522 120.182 497.614C119.859 497.402 119.645 497.084 119.645 496.66C119.645 492.737 135.98 481.182 139.956 481.182C143.932 481.182 159.816 485.498 160.461 485.71L160.139 486.664C160.031 486.664 143.825 482.136 139.956 482.136C136.194 482.136 120.719 493.797 120.719 496.553C120.719 496.553 120.719 496.66 120.827 496.66C122.546 497.932 134.69 495.387 141.89 493.373H141.998H142.105C142.32 493.373 161.234 496.978 166.393 496.978C166.492 496.978 167.683 496.223 169.997 493.325C170.172 493.106 170.353 492.875 170.54 492.631C170.548 492.621 170.556 492.611 170.563 492.601L171.423 493.237C171.242 493.484 171.069 493.717 170.902 493.936C168.492 497.107 166.996 498.144 166.393 498.144Z" fill="#FFE8D2"/>
<path d="M160.461 485.71L160.139 486.664L169.997 493.325C170.172 493.106 170.353 492.875 170.54 492.631L160.461 485.71Z" fill="#FFE8D2"/>
<path d="M160.139 486.664C160.031 486.664 143.825 482.136 139.956 482.136C136.194 482.136 120.719 493.797 120.719 496.553C120.719 496.553 120.719 496.66 120.827 496.66C122.546 497.932 134.69 495.387 141.89 493.373H141.998H142.105C142.32 493.373 161.234 496.978 166.393 496.978C166.492 496.978 167.683 496.223 169.997 493.325L160.139 486.664Z" fill="#FFE8D2"/>
<path d="M217.703 410.707L216.711 410.376C218.916 404.092 221.893 391.634 222.444 388.878L223.546 389.099C222.885 391.855 219.798 404.423 217.703 410.707Z" fill="white"/>
<path d="M223.431 389.099L222.328 388.768L222.879 388.989H222.328V388.879C227.399 364.183 229.163 328.133 229.163 327.802H230.266C230.266 328.133 228.392 364.183 223.32 388.989L223.431 389.099Z" fill="white"/>
<path d="M362.9 454.585C360.695 444.663 357.278 434.41 353.75 423.937C353.419 422.944 346.143 399.021 345.702 395.493C345.15 391.855 347.907 379.066 348.017 378.515C351.655 360.655 357.939 340.039 358.049 339.819L359.152 340.149C359.042 340.37 352.757 360.876 349.119 378.736C349.119 378.846 346.363 391.855 346.804 395.273C347.355 398.8 354.742 423.385 354.852 423.606C358.38 434.079 361.798 444.443 364.003 454.365L362.9 454.585Z" fill="white"/>
<path d="M171.971 492.151L161.027 485.115L160.431 486.043L171.374 493.078L171.971 492.151Z" fill="#662D91"/>
<path d="M280.318 150.966C242.945 150.966 245.921 179.52 243.716 199.365C241.512 219.209 224.644 230.123 250.331 249.196C276.019 268.269 341.946 254.378 349.333 234.533C356.609 214.689 331.693 205.208 325.189 187.679C318.464 170.039 315.487 150.966 280.318 150.966Z" fill="#31243C"/>
<path d="M285.944 258.787C285.834 258.787 285.944 258.787 285.944 258.787C275.14 258.787 260.147 257.244 250.004 249.637C231.262 235.746 234.9 225.713 239.09 214.248C240.743 209.617 242.507 204.877 243.169 199.364C243.389 197.049 243.61 194.514 243.83 191.978C245.263 173.567 247.027 150.525 280.432 150.525C312.624 150.525 318.247 166.732 323.869 182.387C324.42 184.15 325.082 185.804 325.743 187.458C328.279 194.073 333.35 199.585 338.422 204.877C346.8 213.807 354.628 222.186 349.998 234.754C344.485 248.975 311.852 258.787 285.944 258.787ZM280.322 151.517C247.909 151.517 246.256 173.016 244.822 191.978C244.602 194.624 244.492 197.049 244.161 199.475C243.499 205.097 241.735 209.948 240.082 214.689C235.892 226.265 232.475 235.415 250.555 248.865C260.477 256.252 275.25 257.795 285.834 257.795C314.719 257.795 344.044 246.881 348.675 234.423C353.084 222.516 345.477 214.358 337.319 205.759C332.248 200.357 326.956 194.734 324.42 187.899C323.759 186.245 323.208 184.481 322.546 182.717C317.034 166.621 311.632 151.517 280.322 151.517Z" fill="white"/>
<path d="M167.652 445.876C175.921 450.065 184.741 453.152 193.891 455.137C195.104 452.932 196.206 450.837 197.419 448.632C187.497 446.648 177.905 443.34 168.975 438.6C168.534 441.025 168.093 443.451 167.652 445.876Z" fill="white"/>
<path d="M163.129 471.343C168.972 473.989 175.146 475.863 181.54 477.186C182.753 475.091 183.965 472.997 185.288 470.682C178.012 469.469 171.067 467.264 164.452 464.067C164.011 466.713 163.57 469.138 163.129 471.343Z" fill="white"/>
<path d="M286.822 298.366C259.37 297.815 231.919 296.051 205.239 289.326C204.247 290.979 203.145 293.184 202.152 295.83C229.714 303.106 258.378 304.87 286.822 305.422C312.509 305.973 340.071 307.847 364.986 300.461C364.545 299.689 364.215 299.138 363.774 298.586C362.782 297.153 361.679 295.83 360.246 294.618C336.874 301.012 310.745 298.807 286.822 298.366Z" fill="white"/>
<path d="M232.249 333.424C251.652 334.527 271.386 333.865 290.9 333.975C310.524 334.086 330.148 334.086 349.661 334.086C359.363 334.086 369.946 334.086 378.325 329.455C377.443 327.25 376.561 325.045 375.679 322.951C365.978 329.345 349.771 326.92 339.518 326.92C321.218 326.92 303.027 326.809 284.726 326.809C267.197 326.699 249.668 327.14 232.249 326.368C219.24 325.817 206.892 322.73 194.765 318.761C194.103 320.966 193.552 323.281 192.891 325.597C205.679 329.566 218.578 332.763 232.249 333.424Z" fill="white"/>
<path d="M343.815 357.678C323.64 358.781 303.355 358.009 283.18 358.009C264.217 358.009 245.034 358.56 226.072 357.568C212.732 356.907 198.841 354.592 187.486 347.646C186.934 349.961 186.383 352.387 185.832 354.812C196.085 360.435 207.771 362.97 219.678 364.183C239.302 366.167 259.477 365.065 279.211 365.065C300.709 365.065 322.317 365.726 343.815 364.734C359.029 364.073 373.913 361.206 388.686 357.789C387.914 355.473 387.142 353.269 386.37 350.953C372.369 354.261 358.258 356.907 343.815 357.678Z" fill="white"/>
<path d="M395.964 383.035C382.624 387.114 368.843 389.65 355.062 391.083L358.59 397.918C371.82 396.375 384.829 393.839 397.507 389.981C397.066 387.665 396.625 385.35 395.964 383.035Z" fill="white"/>
<path d="M221.554 394.611C222.326 391.304 222.767 389.209 222.877 388.989C222.546 390.973 222.105 392.847 221.554 394.611C242.832 398.47 264.991 398.911 286.159 399.572C306.224 400.234 326.619 400.565 346.684 399.021C346.133 396.485 345.912 394.391 346.133 392.737C346.133 392.517 346.243 392.186 346.243 391.855C327.501 393.288 308.539 393.178 289.797 392.517C253.967 391.414 213.616 391.855 181.645 373.664C181.094 376.09 180.653 378.405 180.102 380.83C193.111 387.776 207.112 391.965 221.554 394.611Z" fill="white"/>
<path d="M398.835 415.338C361.571 427.244 321.442 427.465 282.525 425.701C260.255 424.708 237.765 423.606 215.605 421.622C215.164 423.937 214.613 426.252 214.172 428.677C236.221 431.103 258.711 431.764 280.761 432.756C318.906 434.52 357.823 434.3 394.645 423.937C396.189 421.511 397.512 418.976 398.504 416.44C398.614 416.109 398.725 415.668 398.835 415.338Z" fill="white"/>
<path d="M174.148 411.589C173.707 414.014 173.266 416.44 172.715 418.755C183.188 423.716 194.985 426.252 206.671 427.685C207.112 427.795 207.553 427.795 207.994 427.795C209.096 425.48 210.199 423.165 211.301 421.07C198.513 419.857 185.393 417.432 174.148 411.589Z" fill="white"/>
<path d="M365.757 472.225C339.849 477.076 313.389 478.068 286.93 477.737C271.055 477.517 255.069 476.855 239.194 476.083C228.279 475.532 217.254 474.54 207.332 470.351C207.222 473.327 207.443 475.863 207.994 478.178C216.372 481.045 225.302 482.257 234.232 482.808C250.439 483.911 266.755 484.352 283.072 484.683C310.523 485.234 338.085 484.242 365.205 479.391C365.536 477.186 365.757 474.76 365.757 472.225Z" fill="white"/>
<path d="M361.018 445.655C311.407 453.814 260.584 453.262 211.193 444.002C210.752 446.317 210.311 448.742 209.98 450.947C260.473 460.318 312.179 460.759 362.782 452.491L361.018 445.655Z" fill="white"/>
<path d="M201.387 100.805C201.387 100.805 190.252 83.3856 170.077 78.5347C149.902 73.6839 125.537 90.3311 126.971 112.601C128.404 134.871 151.996 157.802 177.794 153.613C203.482 149.423 204.253 123.736 204.253 123.736C204.253 123.736 192.457 143.249 177.794 139.06C163.242 134.871 151.335 115.467 154.201 103.561C156.958 91.7643 172.943 88.2364 181.322 90.9926C189.591 93.859 201.387 100.805 201.387 100.805Z" fill="#FFDE17"/>
<path d="M240.743 110.837C240.743 110.837 240.302 114.695 239.861 115.136C239.42 115.577 236.223 116.018 236.223 116.018C236.223 116.018 239.751 116.459 240.412 117.121C241.073 117.782 242.176 121.09 242.176 121.09C242.176 121.09 242.617 116.68 243.168 116.459C243.719 116.239 246.145 115.247 246.145 115.247C246.145 115.247 243.168 115.026 242.507 114.806C241.735 114.585 240.743 110.837 240.743 110.837Z" fill="white"/>
<path d="M423.309 220.973C423.309 220.973 422.868 224.832 422.427 225.273C421.986 225.714 418.789 226.155 418.789 226.155C418.789 226.155 422.317 226.596 422.978 227.257C423.64 227.919 424.742 231.226 424.742 231.226C424.742 231.226 425.183 226.816 425.735 226.596C426.286 226.375 428.711 225.383 428.711 225.383C428.711 225.383 425.735 225.163 425.073 224.942C424.301 224.722 423.309 220.973 423.309 220.973Z" fill="white"/>
<path d="M520.546 197.27C520.546 197.27 519.884 202.672 519.333 203.334C518.782 203.995 514.262 204.657 514.262 204.657C514.262 204.657 519.113 205.318 520.105 206.09C521.097 206.862 522.53 211.602 522.53 211.602C522.53 211.602 523.081 205.428 523.853 205.098C524.625 204.767 527.932 203.444 527.932 203.444C527.932 203.444 523.853 203.113 522.861 202.782C521.979 202.452 520.546 197.27 520.546 197.27Z" fill="white"/>
<path d="M269.737 70.5967C269.737 70.5967 269.076 75.9988 268.524 76.6602C267.973 77.3217 263.453 77.9832 263.453 77.9832C263.453 77.9832 268.304 78.6447 269.296 79.4164C270.178 80.1881 271.722 84.9287 271.722 84.9287C271.722 84.9287 272.273 78.7549 273.045 78.4242C273.816 78.0934 277.124 76.7705 277.124 76.7705C277.124 76.7705 273.045 76.4397 272.052 76.109C271.17 75.7783 269.737 70.5967 269.737 70.5967Z" fill="white"/>
<path d="M107.675 194.955C107.675 194.955 106.793 202.011 106.021 202.893C105.249 203.775 99.4062 204.657 99.4062 204.657C99.4062 204.657 105.801 205.539 107.013 206.531C108.226 207.633 110.21 213.807 110.21 213.807C110.21 213.807 110.982 205.649 111.974 205.208C112.967 204.767 117.376 203.113 117.376 203.113C117.376 203.113 111.974 202.672 110.762 202.231C109.549 201.79 107.675 194.955 107.675 194.955Z" fill="white"/>
<path d="M493.538 255.59C493.538 255.59 492.656 262.646 491.884 263.528C491.113 264.41 485.27 265.292 485.27 265.292C485.27 265.292 491.664 266.174 492.876 267.166C494.089 268.269 496.074 274.443 496.074 274.443C496.074 274.443 496.845 266.284 497.838 265.843C498.83 265.402 503.24 263.749 503.24 263.749C503.24 263.749 497.838 263.308 496.625 262.867C495.412 262.426 493.538 255.59 493.538 255.59Z" fill="white"/>
<path d="M341.731 183.269L340.738 182.828C341.179 181.946 351.212 160.117 361.685 157.14C364.331 156.369 366.426 156.699 368.079 158.132C370.725 160.337 371.277 164.968 371.387 167.834C374.584 161.33 383.845 143.58 389.908 142.477C391.562 142.147 392.885 142.588 393.767 143.47C395.09 144.793 395.31 147.218 395.2 149.423C397.736 144.462 403.689 136.083 416.919 128.917C422.321 126.051 426.731 125.61 430.148 127.704C435.33 130.902 436.763 138.95 437.094 143.58C440.291 134.099 451.426 106.096 473.806 104.332C480.641 103.781 486.043 105.545 490.012 109.624C496.847 116.57 497.729 128.256 497.619 134.209C499.383 130.791 503.572 125.941 513.384 124.507C515.7 124.177 517.794 124.838 519.448 126.492C526.614 133.548 524.96 156.92 524.299 164.306C526.945 160.778 533.89 153.502 544.805 153.502C547.561 153.502 549.876 154.494 551.64 156.589C558.034 163.976 555.499 182.387 555.388 183.158L554.286 183.048C554.286 182.828 556.821 164.417 550.758 157.361C549.214 155.597 547.23 154.715 544.805 154.715C531.134 154.715 524.078 166.621 523.968 166.732L522.645 169.047L522.976 166.401C522.976 166.07 526.724 135.201 518.676 127.374C517.243 125.941 515.589 125.389 513.495 125.72C498.722 127.815 497.399 137.957 497.399 138.068L496.296 137.957C496.296 137.737 498.06 119.436 489.13 110.396C485.382 106.537 480.2 104.883 473.806 105.435C447.788 107.529 437.204 146.667 437.094 146.998L435.881 151.518L435.991 146.887C435.991 146.777 436.212 132.886 429.487 128.697C426.4 126.822 422.321 127.263 417.36 130.02C398.397 140.273 394.649 153.171 394.428 154.164V154.274L393.326 154.053C393.326 154.053 393.326 153.943 393.326 153.833C393.877 151.738 394.649 146.336 392.775 144.352C392.113 143.69 391.231 143.47 389.908 143.69C383.183 144.903 371.166 170.48 371.056 170.701L369.733 173.567L370.064 170.37C370.064 170.26 370.836 161.991 367.308 159.014C365.985 157.912 364.221 157.692 361.906 158.243C351.983 160.999 341.841 183.048 341.731 183.269Z" fill="white"/>
<path d="M16.9367 318.982L16.0547 318.321C16.2752 318.1 33.2531 293.626 51.6643 288.664C56.7357 287.341 60.1533 287.672 61.6967 289.767C63.7914 292.523 62.1377 297.594 60.5943 300.902C66.8783 294.728 83.4153 279.624 99.2908 276.317C104.583 275.214 108.441 275.986 110.756 278.632C114.725 282.932 113.402 291.2 112.52 295.279C117.04 289.877 129.939 275.545 138.539 276.317C141.405 276.537 143.389 277.64 144.492 279.514C145.705 281.609 145.594 284.255 145.153 286.239C150.555 279.293 166.321 260.882 185.724 257.575C189.472 256.913 192.339 257.795 194.213 260.221C203.364 271.576 187.047 313.58 186.275 315.344L185.283 314.903C185.504 314.462 202.151 271.686 193.331 260.882C191.677 258.788 189.252 258.126 185.834 258.677C162.462 262.536 144.161 289.216 143.941 289.546L142.948 288.995C142.948 288.885 145.374 283.373 143.389 280.065C142.507 278.522 140.743 277.64 138.208 277.419C128.396 276.537 111.638 297.815 111.528 298.035L109.654 300.461L110.646 297.484C110.646 297.374 114.725 284.696 109.874 279.404C107.78 277.089 104.252 276.427 99.401 277.419C79.7772 281.609 58.9406 304.099 58.7201 304.319L55.0819 308.288L57.8381 303.658C57.9484 303.548 63.4607 294.177 60.7045 290.539C59.3816 288.885 56.4049 288.554 51.8848 289.877C33.9146 294.618 17.1572 318.762 16.9367 318.982Z" fill="white"/>
<path d="M73.3859 328.464L72.5039 327.912C72.6142 327.802 83.0876 311.927 101.499 306.745C107.121 305.202 110.429 305.312 111.752 307.296C113.405 309.722 110.98 314.021 109.326 316.447C112.744 315.014 119.8 312.588 123.769 315.565C126.525 317.659 127.186 321.959 125.643 328.353L124.54 328.133C125.863 322.18 125.422 318.211 122.997 316.447C118.366 312.809 107.893 318.211 107.783 318.321L105.468 319.534L107.011 317.549C108.555 315.675 112.082 310.163 110.539 307.958C109.877 306.966 107.783 306.084 101.499 307.958C83.7491 312.809 73.4961 328.353 73.3859 328.464Z" fill="white"/>
<path d="M402.691 183.269L401.699 182.718C402.03 182.167 408.534 169.378 419.008 167.283C421.985 166.732 424.19 167.173 425.843 168.716C427.938 170.701 428.269 174.008 428.269 176.103C432.127 170.48 444.916 153.282 459.027 152.4C463.217 152.18 466.304 153.282 468.068 155.707C471.485 160.338 469.501 168.386 468.398 171.914C470.714 170.37 475.564 167.504 479.754 167.394C480.636 167.394 481.518 167.724 481.959 168.496C484.274 171.803 480.636 182.056 480.305 183.269L479.313 182.938C480.415 179.962 482.841 171.583 481.187 169.268C480.856 168.827 480.525 168.606 479.864 168.716C474.572 168.827 467.847 173.898 467.737 174.008L466.193 175.221L466.855 173.457C466.855 173.347 471.155 162.102 467.186 156.7C465.642 154.605 462.886 153.613 459.138 153.833C443.042 154.825 428.269 178.528 428.048 178.749L426.615 181.064L427.056 178.418C427.056 178.308 427.938 172.465 425.071 169.819C423.749 168.606 421.764 168.165 419.228 168.716C409.306 170.37 402.802 183.159 402.691 183.269Z" fill="white"/>
<path d="M482.075 332.432L481.965 331.33C482.406 331.22 526.835 324.715 561.563 295.059C596.29 265.402 604.338 235.305 604.338 234.974L605.441 235.195C605.331 235.526 597.283 265.954 562.224 295.83C527.276 325.818 482.516 332.432 482.075 332.432Z" fill="#414042"/>
<path d="M56.4111 110.947L55.3086 110.616C78.2399 33.2229 119.472 8.96868 119.803 8.63794L120.354 9.63016C120.023 9.85065 79.1218 33.9946 56.4111 110.947Z" fill="#414042"/>
<path d="M125.861 439.04C66.8788 433.969 35.8996 413.243 20.2446 396.816C3.2666 378.956 0.179688 361.978 0.179688 361.758L1.28215 361.537C1.28215 361.758 4.36905 378.405 21.1265 396.044C36.6713 412.361 67.4301 432.867 125.971 437.938L125.861 439.04Z" fill="#414042"/>
<path d="M608.737 211.602L607.635 211.492C609.73 179.961 598.595 151.518 598.484 151.187L599.477 150.746C599.587 151.077 610.832 179.741 608.737 211.602Z" fill="#414042"/>
</svg>
