<?xml version="1.0" encoding="UTF-8" standalone="no"?>
<svg
   xmlns:dc="http://purl.org/dc/elements/1.1/"
   xmlns:cc="http://creativecommons.org/ns#"
   xmlns:rdf="http://www.w3.org/1999/02/22-rdf-syntax-ns#"
   xmlns:svg="http://www.w3.org/2000/svg"
   xmlns="http://www.w3.org/2000/svg"
   viewBox="0 0 2666.6667 2666.6667"
   height="2666.6667"
   width="2666.6667"
   xml:space="preserve"
   id="svg2"
   version="1.1"><metadata
     id="metadata8"><rdf:RDF><cc:Work
         rdf:about=""><dc:format>image/svg+xml</dc:format><dc:type
           rdf:resource="http://purl.org/dc/dcmitype/StillImage" /></cc:Work></rdf:RDF></metadata><defs
     id="defs6"><clipPath
       id="clipPath42"
       clipPathUnits="userSpaceOnUse"><path
         id="path40"
         d="m 15919.6,6440.3 c -420.7,-1217.5 -923.2,-2419.8 -2671,-2884 l -7554.23,80.2 c -1702.25,804 -2632.5,2391.5 -2787.25,4104.3 -51.25,566 -17.75,1145.9 101,1715.4 31,150 68,299.3 111.01,447.3 390.24,1345.5 1216.25,2614 2444.99,3329.5 789.5,459.8 1801.51,308 2640.01,72 755.99,-212.7 1494.49,-510.7 2274.97,-600.5 376.3,-43.1 756.5,-37 1136.3,-30.8 247.8,4 495.5,8 741.7,-1.7 223.3,-8.7 445,-28.7 665,-70 942.3,-177 1777.5,-754.7 2350.8,-1527.2 197.5,-265.5 363.7,-554 493,-857 504.7,-1185.3 474.5,-2560 53.7,-3777.5" /></clipPath><clipPath
       id="clipPath120"
       clipPathUnits="userSpaceOnUse"><path
         id="path118"
         d="m 7799.18,7462.7 c -8.59,0 -17.34,0.2 -26.28,0.6 -17.55,0.7 -34.98,3.1 -52.35,6.9 l 425.69,350.4 c 7.36,-5.9 14.69,-11.6 22.03,-17.3 -25.15,-199.9 -127.55,-340.6 -369.09,-340.6" /></clipPath></defs><g
     transform="matrix(1.3333333,0,0,-1.3333333,0,2666.6667)"
     id="g10"><g
       transform="scale(0.1)"
       id="g12"><g
         transform="scale(1.22699)"
         id="g14"><path
           id="path16"
           style="fill:#ffffff;fill-opacity:1;fill-rule:nonzero;stroke:none"
           d="M 16300,0 H 0 V 16300 H 16300 V 0" /></g><g
         transform="scale(1.12417)"
         id="g18"><path
           id="path20"
           style="fill:#ee6f57;fill-opacity:1;fill-rule:nonzero;stroke:none"
           d="m 16007.2,4071.29 c -9,0 -18,0.71 -26.7,1.69 l 16.5,287.14 c 3.4,0.18 6.8,0.45 10.2,0.45 105.1,0 190.5,-64.94 190.5,-144.65 0,-79.7 -85.4,-144.63 -190.5,-144.63 z m 0,391.48 c -1.4,0 -2.8,-0.08 -4.2,-0.17 l 12.5,217.41 h -1105.6 l 53.3,-922.11 c 9.9,-172.75 153,-307.79 326.1,-307.79 h 346.7 c 173.1,0 316.3,135.04 326.2,307.79 l 12.3,212.78 c 10.8,-0.98 21.7,-1.6 32.7,-1.6 161.5,0 292.8,110.75 292.8,246.84 0,136.11 -131.3,246.85 -292.8,246.85" /></g><g
         transform="scale(1.07504)"
         id="g22"><path
           id="path24"
           style="fill:#e5ecff;fill-opacity:1;fill-rule:nonzero;stroke:none"
           d="m 16286.4,4981.22 c -113.4,14.7 -220.3,80.47 -293.3,174.23 -36.2,47.07 -65.3,101.3 -81.5,160.28 -4.6,14.5 -7.2,29.48 -10.6,44.37 -1.9,15.06 -4.9,30.04 -5.6,45.11 -3.3,30.23 -2,60.65 0.4,90.79 6,60.09 22.4,119.16 49.3,173.39 13.3,27.07 29.1,53.02 47.6,77.11 18,24.09 39.6,46.97 60.1,65.67 20.3,18.98 40,35.26 56.7,51.72 8.6,8.1 16.4,16.09 23.2,24.37 7,8.47 13.1,16.75 17.3,24.56 9.8,16.28 15.8,36.56 16.2,55.53 0.7,19.17 -3.7,36.65 -16.1,50.98 l 29.2,42.51 c 15.6,-7.91 29.4,-20.56 39.8,-35.07 10.1,-14.79 16.9,-31.35 21,-48 7.8,-33.67 5.5,-67.72 -4.7,-100.46 -22.9,-65.67 -66.7,-108.65 -99.5,-146.97 -16.5,-19.35 -30.1,-36.47 -42.2,-56.09 -6.5,-9.4 -11.7,-19.63 -17.5,-29.4 -4.8,-10.41 -10.4,-20.28 -14.7,-30.97 -18.5,-41.86 -29.9,-86.7 -35,-132.09 -9.7,-91.35 10.2,-182.6 58.7,-262.87 49.1,-79.82 123.3,-146.79 214.8,-189.02 l -13.6,-49.68" /></g><g
         transform="scale(1.0971)"
         id="g26"><path
           id="path28"
           style="fill:#e5ecff;fill-opacity:1;fill-rule:nonzero;stroke:none"
           d="m 15992.8,5146.21 c 45.6,40.38 82.5,83.95 110.6,131.72 28.2,47.48 47.6,98.43 56.4,150.3 8.8,51.86 7.4,106.01 -2.4,160.15 -10.2,54.23 -29.2,107.56 -57,162.16 l 36.7,34.63 c 58.9,-37.55 103.3,-97.53 129.2,-164.43 26.1,-67 33.7,-142.38 20.3,-215.02 -13.4,-72.74 -47,-140.28 -94.4,-194.06 -47.6,-53.41 -109.2,-94.34 -176.8,-110.56 l -22.6,45.11" /></g><g
         transform="scale(1.06739)"
         id="g30"><path
           id="path32"
           style="fill:#fbc343;fill-opacity:1;fill-rule:nonzero;stroke:none"
           d="m 7246.1,3402.4 3.41,17.62 c -741.01,143.52 -1372.39,430.86 -1879.24,849.17 -506.84,418.31 -889.37,967.5 -1132.19,1635.85 -189.48,521.65 -282.8,1104.47 -282.79,1697.13 -0.04,911.38 220.64,1845.74 649.86,2616.43 429.29,770.8 1066.45,1377.5 1900,1636.8 190.32,59.2 390.52,82.4 596.9,82.4 365.65,0 750.44,-73 1131.97,-146.3 381.55,-73.2 759.83,-146.8 1113.55,-146.8 6.19,0 12.37,0 18.54,0 600.61,4.5 1171.19,179.9 1737.49,353.3 566.3,173.5 1128.4,345.1 1711.7,345.1 74.3,0 149.1,-2.8 224.2,-8.7 816.3,-64.3 1523.2,-472.4 2065,-1056.4 541.7,-583.9 917.6,-1343.53 1071,-2108.18 59,-293.99 88.8,-593.69 88.8,-893.3 0,-235.62 -18.5,-471.05 -55.5,-703.67 -91.8,-574.77 -278.5,-1137.73 -561.7,-1635.2 -121.2,-213.14 -323.2,-462.25 -554.3,-671.64 -115.6,-104.65 -238.4,-199.46 -361.9,-275.06 -123.5,-75.51 -247.8,-131.82 -365.8,-159.92 l 4.1,-17.43 -3.4,17.52 -7123.18,-1411.1 3.48,-17.62 3.41,17.62 -3.41,-17.62 3.48,-17.52 7123.52,1411.2 0.3,0.09 c 123,29.33 250.3,87.32 376.1,164.33 188.9,115.52 374.5,273.94 536.3,444.17 161.8,170.32 299.6,352.16 392.4,515.27 285.6,501.69 473.6,1068.68 565.9,1647.28 37.4,234.5 55.9,471.9 55.9,709.3 0,301.96 -30,604.09 -89.4,900.33 -154.7,771.18 -533.3,1536.25 -1079.9,2125.45 -546.5,589.2 -1261.7,1002.6 -2088.4,1067.7 -76.1,6 -151.7,8.9 -227,8.9 -590.5,-0.1 -1155.9,-173.3 -1722.2,-346.7 -566.3,-173.5 -1133.6,-347.4 -1727.26,-351.7 -6.08,0 -12.17,-0.1 -18.27,-0.1 -348.77,0 -725.24,73 -1106.81,146.3 -381.6,73.3 -768.33,146.8 -1138.71,146.9 -209.04,0 -412.93,-23.5 -607.53,-84 C 5650.47,11627.1 5006.41,11012.8 4573.88,10236 4141.29,9459.1 3919.53,8519.26 3919.5,7602.17 c 0.01,-596.4 93.84,-1183.16 284.95,-1709.31 244.73,-673.79 631.1,-1228.88 1143.05,-1651.31 511.92,-422.43 1149.2,-712.2 1895.2,-856.67 l 3.44,-0.65 3.44,0.65 -3.48,17.52" /></g><path
         id="path34"
         style="fill:#fbc343;fill-opacity:1;fill-rule:nonzero;stroke:none"
         d="m 11983,3886.2 4.5,-18.2 c 1575,389 2778.4,1562.9 3193.9,2908.1 123.8,400.9 183.9,832.1 183.9,1271.6 0,952.8 -282.6,1944.5 -813.9,2750.9 -531.1,806.3 -1311.9,1427.5 -2307.2,1635.9 -243.8,51.1 -493.7,70.8 -744.3,70.8 -261.3,0 -523.3,-21.4 -780,-51.1 -741.54,-85.7 -1499.44,-191.1 -2246.99,-191.1 -79.42,0 -158.71,1.2 -237.86,3.7 -770.7,24.4 -1522.23,244.5 -2303.57,244.7 -30.1,0 -60.24,-0.3 -90.42,-1 -1150.98,-25.8 -2105.32,-511.6 -2771.11,-1243 -665.87,-731.4 -1043.72,-1708.4 -1043.74,-2717.6 0,-339.2 42.69,-682 131.49,-1020.4 145.75,-555.3 393.03,-1092.5 739.5,-1559 150.22,-202.2 388.74,-431.2 656.24,-620.1 267.58,-188.6 563.78,-337.2 831.11,-376.3 l 7599.35,-1107 3.6,0.9 -4.5,18.2 2.7,18.5 -7595.75,1106.5 c -257.85,37.4 -550.55,183.2 -814.89,369.9 -264.39,186.5 -500.79,413.7 -647.75,611.7 -343.36,462.4 -588.73,995.2 -733.33,1546.2 -87.97,335.2 -130.27,674.8 -130.27,1010.9 -0.02,999.9 374.51,1968 1033.97,2692.4 659.52,724.3 1603.45,1205 2744.23,1230.7 29.89,0.7 59.75,1 89.57,1 774.22,0.2 1525.34,-219.6 2302.38,-244.6 79.57,-2.6 159.26,-3.8 239.05,-3.8 751.06,0 1510.33,105.8 2251.29,191.4 255.9,29.5 516.5,50.8 775.7,50.8 248.7,0 496,-19.5 736.6,-70 984.3,-206.1 1756.6,-820.1 2283.6,-1619.8 527,-799.7 807.7,-1784.9 807.7,-2730.3 0,-436.1 -59.7,-863.6 -182.3,-1260.6 -411,-1331.6 -1604.8,-2497.1 -3167,-2882.7 l 4.5,-18.2 2.7,18.5 -2.7,-18.5" /><g
         id="g36"><g
           clip-path="url(#clipPath42)"
           id="g38"><path
             id="path44"
             style="fill:#ffeec7;fill-opacity:1;fill-rule:nonzero;stroke:none"
             d="m 15919.6,6440.3 c -420.7,-1217.5 -923.2,-2419.8 -2671,-2884 l -7554.23,80.2 c -1702.25,804 -2632.5,2391.5 -2787.25,4104.3 -51.25,566 -17.75,1145.9 101,1715.4 31,150 68,299.3 111.01,447.3 390.24,1345.5 1216.25,2614 2444.99,3329.5 789.5,459.8 1801.51,308 2640.01,72 755.99,-212.7 1494.49,-510.7 2274.97,-600.5 376.3,-43.1 756.5,-37 1136.3,-30.8 247.8,4 495.5,8 741.7,-1.7 223.3,-8.7 445,-28.7 665,-70 942.3,-177 1777.5,-754.7 2350.8,-1527.2 197.5,-265.5 363.7,-554 493,-857 504.7,-1185.3 474.5,-2560 53.7,-3777.5" /><path
             id="path46"
             style="fill:#ffffff;fill-opacity:1;fill-rule:nonzero;stroke:none"
             d="m 1549.58,4596.7 c -34.43,418.2 199.75,869.2 611.15,1176.9 374.69,280.3 837,423.2 1280.77,535.8 2465.79,625.9 5070.34,551.2 7589.1,479 2250.9,-64.6 4578.6,-131.3 6806.9,300.3 317.2,61.4 650.7,136.2 934.5,312.2 304.8,189.1 497.8,485.3 503.6,773.1 11,539.6 -573.6,909.4 -923,1081.8 -1326.9,654.8 -2959.6,901.1 -5138,775.4 C 11575.2,9936.4 9930.75,9672.5 8326.92,9246.5 7966.49,9150.8 7600.37,9044.9 7246.31,8942.6 5978.7,8576.2 4668.07,8197.3 3331.25,8197.3 c -6.73,0 -13.37,0 -20.09,0 -362.88,1 -828.77,74.5 -987.56,418.8 -112.05,243 -17.81,519.8 80.98,709.2 330.2,633.1 954.87,1002.1 1420.78,1200.2 523.37,222.4 1092.09,343.4 1642.09,460.3 65.29,13.9 130.56,27.8 195.73,41.8 1228.74,264.7 2456.84,595.8 3650.17,984.1 566.31,184.2 856.95,423.8 888.55,732.4 28,273.8 -172.9,513.5 -384.45,629.6 -253.46,139.2 -552.91,157.3 -785.48,157.4 -1.07,0 -2.21,0 -3.28,0 -701.86,0 -1398.35,-172.2 -2014.52,-498.2 -228.89,-121 -449.75,-265.1 -663.34,-404.4 -282.76,-184.4 -575.16,-375.1 -890.34,-515.4 -609.48,-271.2 -1331.01,-371.1 -2144.61,-296.9 -628.13,57.3 -1106.94,211.5 -1463.78,471.5 -215.28,156.9 -394.99,359.2 -568.77,555 -211.2,237.8 -429.58,483.7 -710.189,643.4 l 18.558,32.6 c 285.985,-162.8 506.461,-411.1 719.671,-651.2 172.46,-194.2 350.8,-395 562.82,-549.5 351.2,-255.9 823.89,-407.8 1445.1,-464.4 807.02,-73.6 1522.36,25.3 2125.97,293.8 312.44,139 603.56,328.9 885.09,512.5 214.29,139.8 435.88,284.3 666.29,406.2 621.51,328.8 1324.15,502.5 2032.05,502.5 1.12,0 2.18,0 3.31,0 237.03,-0.1 542.59,-18.7 803.49,-162 222.41,-122.1 433.41,-375.5 403.71,-666.3 -33.3,-324.9 -332.3,-574.9 -914.26,-764.3 -1194.53,-388.7 -2423.87,-720.1 -3653.88,-985 -65.19,-14.1 -130.49,-28 -195.81,-41.9 -548.26,-116.5 -1115.18,-237.1 -1635.22,-458.1 -460.27,-195.7 -1077.14,-559.8 -1402.2,-1183 -94.91,-182 -185.85,-447.1 -80.17,-676.2 150.49,-326.4 601.64,-396 953.6,-397 6.61,0 13.36,0 19.98,0 1331.59,0 2639.49,378.1 3904.66,743.8 354.25,102.4 720.57,208.3 1081.4,304.1 1606.26,426.7 3253.2,691 4895.1,785.9 2185.2,126.2 3823.8,-121.4 5156.8,-779.1 357.4,-176.4 955.3,-555.9 943.9,-1116.3 -6.1,-300.3 -205.9,-608.4 -521.4,-804.2 -289.1,-179.4 -626.4,-255 -947,-317.1 -2232.4,-432.4 -4562.2,-365.6 -6815.2,-301 C 8513.37,6823 5911.46,6897.6 3450.73,6273 3010.72,6161.3 2552.63,6019.9 2183.19,5743.6 1782.05,5443.5 1553.58,5005.2 1586.95,4599.7 l -37.37,-3" /></g></g><path
         id="path48"
         style="fill:#e28b6d;fill-opacity:1;fill-rule:nonzero;stroke:none"
         d="m 12450,4582 c 510.1,-130.7 1210.8,-248 987.5,-684 l -1270.7,1.2 283.2,682.8" /><path
         id="path50"
         style="fill:#102048;fill-opacity:1;fill-rule:nonzero;stroke:none"
         d="M 7174.56,3556.2 H 5945.5 c -419.7,0 -759.93,340.2 -759.93,759.9 v 2510.2 c 0,419.7 340.23,759.9 759.93,759.9 h 1229.06 c 419.69,0 759.92,-340.2 759.92,-759.9 V 4316.1 c 0,-419.7 -340.23,-759.9 -759.92,-759.9" /><path
         id="path52"
         style="fill:#cfd2da;fill-opacity:1;fill-rule:nonzero;stroke:none"
         d="m 5639.6,5529.3 c -23.82,183.8 -41.5,368.4 -52.35,553.6 -10.2,200.1 -15.22,401 -0.68,601.6 7.67,100.2 19.12,200.5 43.13,298.9 12.7,48.9 27.92,97.7 52.02,143.1 12.09,22.6 26.36,44.4 44.82,63.1 18.3,18.6 41.65,33.6 67.86,39.3 l 3.28,-14.2 c -46.16,-12.1 -77.31,-54.3 -98.14,-97.3 -21.33,-43.8 -34.52,-91.8 -45.18,-139.9 -20.89,-96.6 -30.74,-195.8 -36.18,-295 -10.08,-198.8 -5.98,-398.4 6.16,-597.5 10.35,-181.9 26.48,-363.5 47.52,-544.6 -10.87,-3.4 -21.63,-7.1 -32.26,-11.1" /><path
         id="path54"
         style="fill:#1f3c88;fill-opacity:1;fill-rule:nonzero;stroke:none"
         d="m 6267.91,6949.1 c 0,0 77.78,-1577.3 567.39,-3312.5 H 8173.16 L 6267.91,6949.1" /><path
         id="path56"
         style="fill:#6f3428;fill-opacity:1;fill-rule:nonzero;stroke:none"
         d="m 6881.64,7754.3 c -336.18,182.9 -428.38,636.1 -182.87,930.3 23.63,28.4 49.87,57 78.92,86 375.09,373.6 141.39,747.4 88.95,1607 -52.38,858.8 904.34,1093.3 906.19,1093.8 45.11,11 132.43,139.8 169.34,171.8 431.82,374.5 1051.25,346.9 1524.58,61.8 225.2,-135.6 451.84,-344.4 573.75,-584 193.3,-380 228.2,-880.6 553.8,-1176.5 464.1,-421.8 978.8,-779.9 958,-1460.2 -7.3,-241.7 -67.8,-497 -215.1,-690.7 -128.4,-168.8 -323.9,-282.1 -500.3,-391.3 -286.9,-177.5 -589.7,-334.5 -909.92,-439.9 -310.06,-102.1 -623.56,-193.8 -937.93,-281.3 -29.7,-8.3 -59.43,-16.5 -89.18,-24.7 L 6881.64,7754.3" /><path
         id="path58"
         style="fill:#708cd5;fill-opacity:1;fill-rule:nonzero;stroke:none"
         d="m 9069.41,8125.8 c 1123.69,385.8 1733.99,-871.9 2573.19,-3325.9 l 807.4,-217.9 -93.8,-873.9 -294.6,-61.4 -2405.57,-10.1 -586.62,4489.2" /><g
         transform="scale(1.14375)"
         id="g60"><path
           id="path62"
           style="fill:#e5ecff;fill-opacity:1;fill-rule:nonzero;stroke:none"
           d="M 16300,2917.85 H 1361.12 v 514.88 H 16300 v -514.88" /></g><path
         id="path64"
         style="fill:#708cd5;fill-opacity:1;fill-rule:nonzero;stroke:none"
         d="M 7486.43,8308.6 9999.27,7679.7 11055,4516.2 7528.13,4408.7 7294.82,6747.8 7486.43,8308.6" /><path
         id="path66"
         style="fill:#5874be;fill-opacity:1;fill-rule:nonzero;stroke:none"
         d="m 10580.9,4460.2 c -108.8,0 -242.3,34.1 -242.3,34.1 v 0 l 374.7,11.5 c -16.8,-34.6 -70.6,-45.6 -132.4,-45.6" /><path
         id="path68"
         style="fill:#5874be;fill-opacity:1;fill-rule:nonzero;stroke:none"
         d="m 10338.6,4494.3 -472.81,47.5 c 35.66,129 123.91,226.9 295.61,226.9 7,0 14.1,-0.2 21.3,-0.5 L 8282.15,5033 c -74.05,10.3 -140.23,51.7 -181.45,114.1 -27.46,41.5 -59.41,94.1 -75.69,153.7 l -449.97,1648.3 v 0 c 617.38,-621.5 480.85,-1532.3 1008.27,-1622.7 349.14,-59.8 1341.44,-201.6 1814.79,-398.9 95.8,-39.9 360.1,-236.4 319.1,-410.8 -0.9,-3.9 -2.2,-7.5 -3.9,-10.9 l -374.8,-11.4" /><path
         id="path70"
         style="fill:#102048;fill-opacity:1;fill-rule:nonzero;stroke:none"
         d="m 9744,4670.8 c 17.95,28.3 396,103.3 438.7,97.4 140.6,-19.2 217.4,-129.3 251.3,-213.6 l -559.37,-295 -130.63,411.2" /><path
         id="path72"
         style="fill:#102048;fill-opacity:1;fill-rule:nonzero;stroke:none"
         d="m 10162.5,6951.9 64.9,-147.9 c 21.4,-49.5 41.3,-99.5 62.1,-149.2 39.8,-100 78.3,-200.7 114.3,-302.2 73.1,-202.6 137.8,-408.2 198.5,-614.9 59.6,-206.9 113.2,-415.6 160.6,-625.8 22.9,-105.2 45,-210.7 64.6,-316.6 19.2,-106 35.7,-212.5 49.7,-319.3 l -13.9,-2 c -17.6,106 -37.8,211.5 -60.4,316.5 -21.6,105.2 -45.7,209.9 -70.5,314.4 -49.8,208.9 -104.5,416.7 -164.3,623 -58.7,206.6 -124,411.3 -192.9,614.7 -34,101.9 -71,202.8 -108.3,303.4 -19.1,50.2 -37.5,100.7 -57.2,150.7 l -60,149.6 12.8,5.6" /><path
         id="path74"
         style="fill:#f9b384;fill-opacity:1;fill-rule:nonzero;stroke:none"
         d="m 12171.1,4137 c 0,0 -105.7,-125 -439.5,-3.3 -157.2,-18.2 -449.7,-4.2 -1006,86.6 0,0 202,-141.3 658.8,-165.6 0,0 -19.5,-134.4 -260.3,-128.5 -289.7,7.3 -323.2,24.8 -587.2,13.8 -54,-2.2 -171.5,0.3 -298.8,4.2 -222,7.3 -474.22,19.1 -474.22,19.1 l -220.01,393.2 439,210.2 c 134.73,52.8 202.03,71.1 267.53,80.3 283.5,40.2 462.5,72.2 665.7,37.2 225.8,-38.7 915.5,-267.5 1255,-547.2" /><path
         id="path76"
         style="fill:#e28b6d;fill-opacity:1;fill-rule:nonzero;stroke:none"
         d="m 10250.4,3951 -12.3,-6.8 c -222,7.3 -474.22,19.1 -474.22,19.1 l -220.01,393.2 439,210.2 c 134.73,52.8 202.03,71.1 267.53,80.3 -161.4,-65.8 -293.52,-238.3 0,-696" /><path
         id="path78"
         style="fill:#708cd5;fill-opacity:1;fill-rule:nonzero;stroke:none"
         d="m 8522.2,8130.1 c -571.16,117 -1963.08,214.4 -2352.02,-506.2 -320.2,-593.3 482.42,-2580 830.12,-3278.7 143.11,-287.6 558.65,-429.9 720.22,-431 l 2294.88,13.2 c -154.39,35.8 -352.27,864.3 167.3,840.8 L 8282.15,5033 c -74.05,10.3 -140.23,51.7 -181.45,114.1 -27.46,41.5 -59.41,94.1 -75.69,153.7 l -539.45,1976 1036.64,853.3" /><path
         id="path80"
         style="fill:#ffffff;fill-opacity:1;fill-rule:nonzero;stroke:none"
         d="m 13600,3914.2 -2239,1.4 v 211.2 h 2252 l -13,-212.6" /><g
         transform="scale(1.01085)"
         id="g82"><path
           id="path84"
           style="fill:#102048;fill-opacity:1;fill-rule:nonzero;stroke:none"
           d="m 15325.4,3872.18 -2671.9,0.79 974.6,2849.87 2671.9,-0.79 -974.6,-2849.87" /></g><path
         id="path86"
         style="fill:#ffffff;fill-opacity:1;fill-rule:nonzero;stroke:none"
         d="m 14851.4,5201.2 c -82.8,-132.2 -237.5,-186.5 -355.5,-128.4 -7,3.2 -13.8,6.9 -20.5,11.2 -120.3,75 -146.5,249.5 -59,389.3 87.5,140 255.7,192.5 376,117.2 36.2,-22.7 63.7,-54.3 82.5,-91.3 43,-85.7 37.5,-200.5 -23.5,-298" /><path
         id="path88"
         style="fill:#708cd5;fill-opacity:1;fill-rule:nonzero;stroke:none"
         d="m 14851.4,5201.2 c -82.8,-132.2 -286.2,-228.3 -428.8,-71.1 309.3,-28 413.4,174.6 407.6,430.6 105.8,-117 82.2,-262 21.2,-359.5" /><path
         id="path90"
         style="fill:#6f3428;fill-opacity:1;fill-rule:nonzero;stroke:none"
         d="m 10917.3,4691.5 c 114.8,-16.9 225.9,-49 336.1,-83.2 110.1,-34.5 218.3,-74.8 324.7,-119.5 106.8,-43.6 211.1,-93.9 312.3,-149.6 100.7,-56.6 198.8,-119.5 285.4,-196.6 l -9.3,-11.3 c -45.9,34.1 -93.2,66 -142.2,95.3 -48.6,30 -98.7,57.6 -149.4,83.8 -101.4,52.7 -205.1,101.2 -311.2,144.1 -104.8,46.2 -212.4,85.4 -320.3,123.8 -54,19 -108.4,36.9 -163.2,53.6 -54.6,17.1 -109.7,32.8 -165.4,45.1 l 2.5,14.5" /><path
         id="path92"
         style="fill:#6f3428;fill-opacity:1;fill-rule:nonzero;stroke:none"
         d="m 10872.8,4158.4 120.8,-34.5 c 40.2,-10.8 80.7,-20.1 121.4,-28.4 40.6,-8.4 81.6,-14.8 122.8,-20.6 41.1,-5.4 82.5,-9.5 124,-13.7 l 13.8,-1.3 1.1,-12 c 1.5,-16.2 -0.2,-30 -4.5,-44.6 -4.4,-14.2 -12.5,-28.1 -24.2,-38.1 -11.7,-9.8 -25.5,-16.1 -39.3,-19.1 -6.9,-1.7 -13.8,-2 -20.6,-2.9 l -20.3,0.5 v 14.7 l 18.1,2.7 c 5.7,1.7 11.7,2.6 17,4.8 11,3.9 20.3,10.1 27.3,17.7 7.1,7.6 11.9,17 14.2,27.5 2.3,10.1 2.5,22.4 0.8,31.6 l 14.9,-13.3 c -84.8,1.6 -169.8,11.7 -252.8,30.9 -41.5,9.5 -82.3,21.8 -122.3,36 -40.2,13.8 -79,30.8 -117.3,48.4 l 5.1,13.7" /><path
         id="path94"
         style="fill:#6f3428;fill-opacity:1;fill-rule:nonzero;stroke:none"
         d="m 10770.5,4449.5 c 97.1,-12.4 194.8,-21.9 292.5,-31.9 97.6,-10.8 195.4,-20.2 293.1,-35.7 97.2,-15.5 193.8,-33.2 290.5,-50.7 96.6,-17.7 193.2,-35.4 289.5,-54.9 l 22.8,-4.6 -9.7,-21.2 c -6.4,-13.8 -12.5,-34.6 -24.9,-51.9 -5.2,-9.3 -13.7,-16.3 -20.7,-24.2 -8.4,-6.1 -16.5,-13 -25.3,-17.9 -35.5,-20.7 -73.4,-27.7 -110.4,-34.9 -74.6,-12.2 -148.8,-11.7 -222.5,-9.3 -36.9,1.4 -73.7,3 -110.4,6.3 -36.7,2.6 -73.4,5.3 -109.9,10 -73.1,7.6 -145.8,18 -218.4,28.5 l 1.8,14.6 c 73.1,-6 145.8,-14.2 218.8,-18.5 36.5,-2.8 72.9,-5 109.4,-6.6 36.5,-2.4 72.9,-3 109.3,-3.4 72.7,-0.3 145.8,1 216.1,12.6 34.4,7 69.9,14.4 98,31.5 7.1,4 12.9,9.3 19.5,13.8 4.8,6 11.1,10.7 14.7,17.6 9.1,12.8 13.2,27.8 21.7,47.4 l 13.1,-25.8 c -192.8,36.4 -385.4,75.2 -578.5,108.7 -96,17.5 -193.5,29.2 -290.8,42.3 -97.2,13.5 -194.7,25.9 -291.6,43.7 l 2.3,14.5" /><g
         transform="scale(1.14375)"
         id="g96"><path
           id="path98"
           style="fill:#102048;fill-opacity:1;fill-rule:nonzero;stroke:none"
           d="M 1361.12,3410.87 H 16300 v 43.72 H 1361.12" /></g><path
         id="path100"
         style="fill:#102048;fill-opacity:1;fill-rule:nonzero;stroke:none"
         d="m 8241.18,7381.4 c 82.96,-56.5 175.39,-97.7 271.96,-120.4 96.51,-22.3 197.1,-28.2 294.36,-11.3 97.28,15.4 191.11,52.9 270.02,111.9 79.58,58.1 142.7,137.7 187.14,227.5 l 13.47,-5.8 c -10.41,-23.3 -21.12,-46.7 -32.13,-70 -12.52,-22.4 -27.26,-43.7 -41.01,-65.7 -15.23,-20.9 -33.37,-39.5 -50.03,-59.5 -17.92,-18.7 -38.38,-34.9 -57.57,-52.5 -81.84,-64.7 -181.3,-106 -283.85,-122.6 -102.73,-15.8 -208.55,-10.3 -308.2,17.3 -99.71,27.1 -193.72,74.4 -272.97,139.4 l 8.81,11.7" /><path
         id="path102"
         style="fill:#102048;fill-opacity:1;fill-rule:nonzero;stroke:none"
         d="m 7581.79,6951 125.33,-425.9 123.32,-426.5 122.02,-426.8 60.67,-213.5 30.33,-106.8 c 10.44,-35.6 18.97,-72 33.02,-103 27.51,-64.5 83.14,-112.2 146.05,-145.1 63.68,-32.6 134.3,-52.8 205.57,-68.5 71.68,-15.4 144.19,-25.8 217.75,-35.3 l 219.95,-29.8 439.7,-60.8 439.41,-63.3 -1.82,-13.9 -440.89,52.3 -440.58,54.7 -220.2,27.9 c -73.21,9.1 -147.36,19.4 -220.47,34.8 -73.01,15.8 -146.17,36.1 -214.6,70.6 -67.4,34.6 -131.63,88.4 -162.29,161.8 -4.54,8.7 -7.68,18 -10.7,27.3 -3.05,9.2 -6.53,18.6 -8.75,27.4 l -14.93,53.4 -29.88,106.9 -59.74,213.8 -118.8,427.7 -117.49,428.1 -115.48,428.7 13.5,3.8" /><path
         id="path104"
         style="fill:#f9b384;fill-opacity:1;fill-rule:nonzero;stroke:none"
         d="m 9009.05,9023.5 112.53,-968.7 c 33.49,-288.4 -270.44,-530 -578.47,-450.1 -176.13,45.7 -359.66,167.6 -549.59,350.8 -39.07,37.7 -62.8,86.4 -68.11,138.4 l -119.95,1167.5 1203.59,-237.9" /><path
         id="path106"
         style="fill:#3c1c16;fill-opacity:1;fill-rule:nonzero;stroke:none"
         d="m 9024.36,8891.8 61.27,-527.5 c -248.92,-39.1 -599.82,100.9 -955.87,573.4 l 894.6,-45.9" /><path
         id="path108"
         style="fill:#f9b384;fill-opacity:1;fill-rule:nonzero;stroke:none"
         d="m 9638.3,9721 c -14.36,-175.7 -42.12,-359.2 -91.42,-524.1 -83.28,-277.1 -228.55,-500.7 -477.44,-542.1 -732.79,-121.8 -1263.83,606.7 -1263.83,606.7 l -85.2,991.3 442.26,765.1 990.29,28.7 482.95,-571.3 c 0,0 34.94,-356.3 2.39,-754.3" /><path
         id="path110"
         style="fill:#6f3428;fill-opacity:1;fill-rule:nonzero;stroke:none"
         d="m 7696.67,9876.1 c 393.36,29.4 483.94,361.8 510.82,792.7 0,0 1065.46,263.9 1443.73,-493.5 l 286.84,-31.1 -868.65,1153.2 -1350.03,-161.1 -264.12,-876.3 241.41,-383.9" /><path
         id="path112"
         style="fill:#f9b384;fill-opacity:1;fill-rule:nonzero;stroke:none"
         d="m 7904.78,10005.3 c -46.31,51 -115.4,77 -183.81,68.7 -261.31,-31.7 -306.71,-377.7 -246.96,-525 89.42,-220.3 331.53,-287.4 331.53,-287.4 l 208.03,220 c 16.64,229.1 -9.4,414.2 -108.79,523.7" /><g
         id="g114"><g
           clip-path="url(#clipPath120)"
           id="g116"><path
             id="path122"
             style="fill:#687bb9;fill-opacity:1;fill-rule:nonzero;stroke:none"
             d="m 7720.55,7462.7 h 447.719 v 357.902 H 7720.55 Z" /></g></g><path
         id="path124"
         style="fill:#673025;fill-opacity:1;fill-rule:nonzero;stroke:none"
         d="m 6625.37,8025.2 c 53.76,25.9 114.09,49.4 181.73,70.3 -63.07,-20.3 -123.91,-43.6 -181.73,-70.3 m 183.83,70.9 1029.47,842.1 75.33,-733.3 c -5.65,0.3 -11.21,0.6 -16.89,0.9 l -410.68,102.8 -12.52,-102 C 7245.78,8195 7015.47,8162 6809.2,8096.1" /><path
         id="path126"
         style="fill:#687bb9;fill-opacity:1;fill-rule:nonzero;stroke:none"
         d="m 7897.11,8205.8 c -72.57,3.7 -147.33,5.8 -223.13,5.8 -66.09,0 -132.96,-1.6 -200.07,-5 l 12.52,102 410.68,-102.8" /><path
         id="path128"
         style="fill:#687bb9;fill-opacity:1;fill-rule:nonzero;stroke:none"
         d="m 7720.55,7470.2 c -297.09,66.5 -571.5,570.3 -972.7,570.3 -40.05,0 -81.35,-5.1 -124.08,-16 0.53,0.2 1.07,0.5 1.6,0.7 57.82,26.7 118.66,50 181.73,70.3 0.68,0.2 1.37,0.4 2.05,0.6 h 0.05 c 206.27,65.9 436.58,98.9 664.71,110.5 67.11,3.4 133.98,5 200.07,5 75.8,0 150.56,-2.1 223.13,-5.8 5.68,-0.3 11.24,-0.6 16.89,-0.9 l 11.41,-111 c 5.31,-52 29.04,-100.7 68.11,-138.4 51.38,-49.5 102.3,-94.6 152.72,-134.9 l -425.69,-350.4" /><path
         id="path130"
         style="fill:#dd9c74;fill-opacity:1;fill-rule:nonzero;stroke:none"
         d="m 8168.27,7803.3 c -7.34,5.7 -14.67,11.4 -22.03,17.3 -50.42,40.3 -101.34,85.4 -152.72,134.9 -39.07,37.7 -62.8,86.4 -68.11,138.4 l -11.41,111 -75.33,733.3 70.41,57.5 c 91.76,-260.9 305.29,-826 259.19,-1192.4" /><path
         id="path132"
         style="fill:#6f3428;fill-opacity:1;fill-rule:nonzero;stroke:none"
         d="m 7805.54,9261.6 c 139.19,-264.4 528.6,-1572.4 -134.7,-1496.9 -319.69,36.5 -398.18,421.5 -861.69,331.4 l 996.39,1165.5" /><path
         id="path134"
         style="fill:#3c1c16;fill-opacity:1;fill-rule:nonzero;stroke:none"
         d="m 7828.32,9765.7 c 1,30.7 -8.66,58.8 -23.84,82.6 -15.5,23.6 -37.01,43.2 -61.41,54.1 -24.32,11 -50.75,13 -75.71,4 -25.25,-8.9 -47.78,-28.8 -69.87,-51.8 l -16.09,9.6 c 12.62,31.4 34.32,62.7 68.84,80.6 8.65,4.3 17.37,8.8 27.2,10.2 9.59,2.3 19.27,4.3 29.17,3.5 l 14.76,-0.5 14.28,-3 c 9.75,-1.6 18.62,-5.2 27.3,-9.4 34.65,-16.3 61.89,-44.5 77.46,-77.8 15.96,-33.1 19.17,-72.8 6.2,-106.1 l -18.29,4" /><path
         id="path136"
         style="fill:#3c1c16;fill-opacity:1;fill-rule:nonzero;stroke:none"
         d="m 9230.32,9913.4 c 2.36,-67.4 41.61,-120.7 87.67,-119.1 46.06,1.6 81.48,57.5 79.12,124.9 -2.36,67.4 -41.61,120.7 -87.67,119.1 -46.06,-1.6 -81.48,-57.6 -79.12,-124.9" /><path
         id="path138"
         style="fill:#3c1c16;fill-opacity:1;fill-rule:nonzero;stroke:none"
         d="m 8503.79,9887.9 c 2.36,-67.4 41.61,-120.7 87.67,-119 46.05,1.6 81.47,57.5 79.12,124.9 -2.36,67.3 -41.62,120.6 -87.67,119 -46.06,-1.6 -81.48,-57.5 -79.12,-124.9" /><path
         id="path140"
         style="fill:#3c1c16;fill-opacity:1;fill-rule:nonzero;stroke:none"
         d="m 9221.11,9227.5 c -31.69,-39.9 -69.97,-77.3 -119.76,-102 -50.16,-24.2 -111.66,-27.3 -164.46,-11.7 -53.32,15.2 -98.78,44.1 -139.47,76.2 -41.22,31.8 -76.37,69.5 -108.33,109.2 l 15.13,15.7 c 41.48,-28.7 80.4,-59.4 121.62,-85.2 40.75,-26 82.7,-50.1 126.39,-62.7 43.62,-13 87.82,-12.3 130.69,2.3 42.62,15.8 82.74,44.1 123,73.8 l 15.19,-15.6" /><path
         id="path142"
         style="fill:#3c1c16;fill-opacity:1;fill-rule:nonzero;stroke:none"
         d="m 9476.29,10121.5 c -32.48,22.4 -62.66,43.6 -93.44,57.3 -30.94,13.3 -60.57,20.2 -91.21,16.7 -30.57,-2.9 -62.04,-13.7 -94.49,-27.9 -32.65,-14.2 -64.62,-33.3 -101.33,-49.5 l -10,10.5 c 19.95,35.2 46.19,66.7 79.61,91.8 33.23,24.9 74.43,44.1 120.58,47.6 46.13,4.5 93.76,-12.1 127.7,-39 34.66,-26.5 59.08,-60.9 73.98,-98.6 l -11.4,-8.9" /><path
         id="path144"
         style="fill:#3c1c16;fill-opacity:1;fill-rule:nonzero;stroke:none"
         d="m 8748.38,10096 c -34.92,24.8 -69.36,43.8 -104.97,55.1 -35.66,10.9 -71.59,15.1 -107.75,10.9 -36.07,-3.9 -72.15,-14.1 -108.32,-29 -36.23,-15 -71.77,-34.5 -111.31,-53.3 l -10,10.5 c 22.54,38.3 53.72,71.4 91.41,97.5 37.67,26 83.27,43.5 131.33,47.8 47.94,4.7 98.17,-5.8 139.26,-30 41.35,-23.6 74.22,-59.3 91.76,-100.6 l -11.41,-8.9" /><path
         id="path146"
         style="fill:#fb9d7e;fill-opacity:1;fill-rule:nonzero;stroke:none"
         d="m 8310.85,9164.9 c -142.83,0 -261.06,113.2 -266.1,257.1 -5.15,147 109.89,270.4 256.95,275.6 3.19,0.1 6.34,0.1 9.51,0.1 142.82,0 261.05,-113.2 266.09,-257.1 5.16,-147 -109.89,-270.4 -256.95,-275.6 -3.18,-0.1 -6.34,-0.1 -9.5,-0.1" /><path
         id="path148"
         style="fill:#fb9d7e;fill-opacity:1;fill-rule:nonzero;stroke:none"
         d="m 9546.88,9196.9 c -112.48,28 -197.44,128 -201.75,249.4 -5.26,147.1 109.85,270.4 256.79,275.7 3.27,0.1 6.54,0.1 9.8,0.1 8.93,0 17.82,-0.4 26.58,-1.1 -14.36,-175.7 -42.12,-359.2 -91.42,-524.1 v 0" /><path
         id="path150"
         style="fill:#fb9d7e;fill-opacity:1;fill-rule:nonzero;stroke:none"
         d="m 8990.44,9455.7 c -23.58,0 -45.62,16.4 -50.47,41.6 -27.7,144.3 -26.09,303 -10.36,468.7 0.64,6.8 5.94,10.4 11.29,10.4 4.62,0 9.27,-2.7 10.99,-8.3 59.57,-194.4 253.08,-336.4 222.13,-393.5 -21.8,-40.1 -103.67,-85.6 -161.06,-113.7 -7.32,-3.6 -15,-5.2 -22.52,-5.2" /><path
         id="path152"
         style="fill:#3c1c16;fill-opacity:1;fill-rule:nonzero;stroke:none"
         d="m 8971.04,9985.7 c 13.34,-56.9 39.33,-108.6 70.85,-157.2 31.69,-48.6 68.81,-93.8 106.33,-141.3 9.48,-11.9 18.59,-24.3 27.58,-37.5 8.87,-13.3 17.9,-26.9 24.82,-45.6 3.21,-9.3 6.4,-20.9 3.5,-36.1 -4.19,-17.2 -11.36,-23 -17,-31 -12.39,-13.9 -25.42,-24.1 -38.82,-33.2 -53.37,-35.7 -110.07,-57.6 -168.63,-75.7 l -8.32,20.1 c 25.57,15.2 51.78,29.5 76.49,45.7 24.94,15.5 49.72,31.5 71.33,49.1 10.59,8.9 20.78,18 27.89,27 2.9,4.1 6.24,10.1 4.78,7.8 0.11,-0.3 -0.44,3.3 -2.32,8 -7.79,19.9 -27.85,44.4 -45.12,67.5 -36.23,47.1 -74.26,96.1 -103.42,151.1 -29.74,54.4 -50.43,116.2 -51.54,178.8 l 21.6,2.5" /><path
         id="path154"
         style="fill:#3c1c16;fill-opacity:1;fill-rule:nonzero;stroke:none"
         d="m 7572.72,9189 c -16.86,-37.2 -22.37,-78.4 -19.88,-119 2.78,-40.7 13.49,-80.8 28.59,-119 32.22,-75.9 75.15,-150.2 112.86,-226.9 38.48,-76.3 72.18,-157.6 87.61,-244.8 7.36,-43.6 9.76,-88.3 6.36,-132.8 -3,-22.1 -5.11,-44.2 -10.95,-66.7 -6.35,-21.9 -13.6,-43.9 -24.64,-64.2 -20.72,-41 -52.27,-77.7 -92.46,-102.7 -39.87,-25.7 -89.34,-36.6 -136.41,-32 -47.69,6 -87.67,23.3 -127.61,39.3 -39.69,16.5 -78.49,33.9 -117.06,51.2 -77.14,34 -155.14,67 -236.07,82 -40.19,7.5 -81.44,10 -119.81,-0.1 -18.94,-5.4 -36.76,-13.9 -52.59,-25.7 -15.87,-11.7 -28.74,-27.3 -40.19,-44 l -16.16,9.4 c 11.12,19.2 24.29,37.8 41.69,52.7 17.54,14.7 37.92,25.8 59.53,33.2 43.67,13.9 89.43,13.5 132.83,7.6 87.06,-13.4 167.98,-44.9 247.11,-76.6 l 117.43,-48.8 c 38.74,-15.3 78.36,-30.8 115.43,-34.8 37.52,-3.1 75.24,5.5 106.81,26.3 31.78,20.2 57.4,50.7 75.48,84.9 9.55,17 15.78,35.7 21.46,54.3 5.09,18.7 7.25,39 10.22,58.9 3.42,40.3 1.7,80.9 -4.66,121.2 -13.43,80.6 -44.83,158.4 -79.82,234.8 -34.81,77 -75.62,151.2 -106.78,233 -14.07,41.5 -23.48,85 -24.32,129.3 -0.86,44.1 8.07,89.3 29.3,128.4 l 16.7,-8.4" /><path
         id="path156"
         style="fill:#3c1c16;fill-opacity:1;fill-rule:nonzero;stroke:none"
         d="m 7586.16,11416 c 71.76,32.4 146.95,55.6 222.68,75.4 75.72,20.3 152.68,35.3 230.06,47.4 77.46,11.6 155.56,19.8 234.11,22.1 39.27,1 78.62,0.9 117.97,-1.1 39.29,-2.5 78.71,-7 117.37,-15.1 l -2.62,-18.5 c -38.5,1.2 -76.7,2.5 -115.17,0.2 -38.37,-0.9 -76.78,-3.5 -115.09,-7.2 -76.64,-7 -153.18,-16.3 -229.49,-27.5 -76.34,-11.2 -152.26,-25 -228.06,-39.6 -37.91,-7.3 -75.57,-15.8 -113.07,-24.8 -37.8,-8.1 -74.78,-18.7 -112.13,-28.8 l -6.56,17.5" /><path
         id="path158"
         style="fill:#3c1c16;fill-opacity:1;fill-rule:nonzero;stroke:none"
         d="m 8203.25,10677.2 c 31.95,16.9 65.7,27.1 99.63,35.4 33.99,7.9 68.25,14.8 102.74,19.3 69,9.4 138.57,13.2 208.13,13.2 139.17,0 278.35,-19.5 413.25,-56 134.41,-37.6 264.55,-96.8 376.33,-182.4 55.43,-43.2 106.79,-92 149.93,-147.4 42.63,-55.7 78.94,-116 106.4,-180 l -16.89,-8 c -64.99,119.5 -154.14,224.5 -264.44,301.8 -54.74,39 -112.78,73.4 -174.02,101.6 -61.16,28.3 -125.3,50 -190.16,68.8 -129.94,37.7 -265.48,55.7 -401.19,61.2 -67.92,2.7 -136.05,1 -203.7,-5 -67.23,-6 -136.24,-14.7 -197.53,-39.2 l -8.48,16.7" /><path
         id="path160"
         style="fill:#3c1c16;fill-opacity:1;fill-rule:nonzero;stroke:none"
         d="m 3494.65,6946.6 257.03,-83.3 c 22.17,-7.2 37.45,-26.8 38.95,-50.1 1.52,-23.2 -11.1,-44.7 -32.15,-54.7 l -280.72,-133.1 0.48,-3.8 392.69,-78.3 c 14.7,-2.9 24.32,-17.2 21.38,-32 -2.93,-14.7 -17.27,-24.3 -32.02,-21.4 l -392.68,78.3 c -24.29,4.9 -41.98,23.8 -45.03,48.4 -3.05,24.6 9.44,47.4 31.85,58 l 280.71,133.1 -0.25,3.8 -257.03,83.3 c -14.31,4.6 -22.16,20 -17.51,34.3 4.64,14.3 19.99,22.1 34.3,17.5" /><path
         id="path162"
         style="fill:#3c1c16;fill-opacity:1;fill-rule:nonzero;stroke:none"
         d="m 2830.95,7300.7 228.28,-74 c 19.68,-6.3 33.25,-23.8 34.59,-44.4 1.35,-20.7 -9.86,-39.8 -28.56,-48.6 l -249.31,-118.3 0.43,-3.3 348.74,-69.5 c 13.06,-2.6 21.61,-15.4 19,-28.5 -2.6,-13.1 -15.34,-21.6 -28.44,-19 l -348.74,69.5 c -21.57,4.4 -37.28,21.2 -39.99,43 -2.71,21.9 8.38,42.1 28.29,51.6 l 249.29,118.2 -0.22,3.3 -228.27,74 c -12.71,4.1 -19.67,17.8 -15.55,30.5 4.12,12.7 17.76,19.6 30.46,15.5" /><path
         id="path164"
         style="fill:#3c1c16;fill-opacity:1;fill-rule:nonzero;stroke:none"
         d="m 4208.73,6404.1 180.99,-58.7 c 15.6,-5 26.36,-18.9 27.42,-35.2 1.07,-16.4 -7.82,-31.5 -22.64,-38.6 l -197.66,-93.7 0.33,-2.7 276.51,-55.1 c 10.35,-2 17.13,-12.1 15.06,-22.5 -2.07,-10.4 -12.16,-17.2 -22.55,-15.1 l -276.5,55.1 c -17.11,3.5 -29.56,16.8 -31.71,34.1 -2.15,17.4 6.65,33.4 22.43,40.9 l 197.66,93.7 -0.18,2.6 -180.99,58.7 c -10.07,3.3 -15.6,14.1 -12.32,24.2 3.26,10 14.07,15.6 24.15,12.3" /><path
         id="path166"
         style="fill:#ffffff;fill-opacity:1;fill-rule:nonzero;stroke:none"
         d="m 15522.1,7824.1 h -803.3 c -131.3,0 -238.9,107.6 -238.9,239 v 723.3 c 0,131.4 107.6,238.9 238.9,238.9 h 803.3 c 131.4,0 239,-107.5 239,-238.9 v -723.3 c 0,-131.4 -107.6,-239 -239,-239" /><path
         id="path168"
         style="fill:#1f3c88;fill-opacity:1;fill-rule:nonzero;stroke:none"
         d="m 15522.1,7824.1 v 18.8 h -803.3 c -60.5,0 -115.4,24.7 -155.4,64.7 -40,40 -64.7,94.9 -64.7,155.5 v 723.3 c 0,60.5 24.7,115.5 64.7,155.4 40,40 94.9,64.7 155.4,64.7 h 803.3 c 60.6,0 115.5,-24.7 155.5,-64.7 40,-39.9 64.7,-94.9 64.7,-155.4 v -723.3 c 0,-60.6 -24.7,-115.5 -64.7,-155.5 -40,-40 -94.9,-64.7 -155.5,-64.7 v -18.8 -18.7 c 141.9,0.1 257.6,115.8 257.7,257.7 v 723.3 c -0.1,141.8 -115.8,257.6 -257.7,257.6 h -803.3 c -141.8,0 -257.5,-115.8 -257.6,-257.6 v -723.3 c 0.1,-141.9 115.8,-257.6 257.6,-257.7 h 803.3 v 18.7" /><path
         id="path170"
         style="fill:#1f3c88;fill-opacity:1;fill-rule:nonzero;stroke:none"
         d="m 15120.5,7586.8 -232.9,237.3 h 465.7 z" /><path
         id="path172"
         style="fill:#1f3c88;fill-opacity:1;fill-rule:nonzero;stroke:none"
         d="m 15100.1,8084.4 c -12.4,0 -24.3,5.4 -32.4,15 l -232.9,273.8 c -15.2,17.9 -13.1,44.7 4.8,59.9 18,15.3 44.8,13 60,-4.8 l 193.1,-227 300.6,541.8 c 11.4,20.6 37.4,28 57.9,16.6 20.5,-11.4 27.9,-37.3 16.5,-57.8 l -330.4,-595.6 c -6.8,-12.2 -19.1,-20.3 -33,-21.7 -1.4,-0.1 -2.8,-0.2 -4.2,-0.2" /><path
         id="path174"
         style="fill:#ee6f57;fill-opacity:1;fill-rule:nonzero;stroke:none"
         d="m 3239,5197.4 c -356.72,-84.5 -752.38,-201.6 -921.58,-561.2 -159.83,-339.7 6.53,-669.7 327.62,-830.3 217.27,-108.8 1045.23,-291.9 701.42,-693.7 -222.14,-259.6 -607.85,-179.3 -861.52,-26.1 -132.16,79.9 -252.59,-127 -120.79,-206.6 288.44,-174.3 620.47,-238.2 934.2,-94.1 340.51,156.4 474.51,557.3 214.73,850.5 -133.21,150.4 -321.36,221.1 -506.29,284.7 -174.89,60.2 -403.89,127.5 -488.8,311.9 -79.91,173.5 24.95,371.8 158.08,486.1 172.26,147.7 411.85,197.2 626.56,248 149.8,35.5 86.38,266.3 -63.63,230.8" /><path
         id="path176"
         style="fill:#ee6f57;fill-opacity:1;fill-rule:nonzero;stroke:none"
         d="m 6517.82,4759.8 c 405.53,-23.7 434.65,504.5 434.65,504.5 0,0 -277.43,140.8 -537.41,-33.8 l 102.76,-470.7" /><path
         id="path178"
         style="fill:#3c1c16;fill-opacity:1;fill-rule:nonzero;stroke:none"
         d="m 6540.73,4919.8 c 161.51,2.5 240.95,205.5 240.95,205.5 0,0 -119.04,72.8 -268.97,-1.7 l 28.02,-203.8" /><path
         id="path180"
         style="fill:#ee6f57;fill-opacity:1;fill-rule:nonzero;stroke:none"
         d="m 5372.46,5248.6 c -281.2,293.2 101.71,658.1 101.71,658.1 0,0 287.18,-119.6 323.08,-430.7 l -424.79,-227.4" /><path
         id="path182"
         style="fill:#3c1c16;fill-opacity:1;fill-rule:nonzero;stroke:none"
         d="m 5472.46,5371.3 c -98.13,118.8 0,302.1 0,302.1 0,0 126.53,-41.3 165.27,-196.3 l -165.27,-105.8" /><path
         id="path184"
         style="fill:#ee6f57;fill-opacity:1;fill-rule:nonzero;stroke:none"
         d="m 5952.87,3951.7 c -13.75,-32 -43.75,-53.7 -78.25,-58.9 -274.24,-42.3 -341.25,33.4 -341.25,33.4 0,0 -218.25,-121.5 -731.25,23.1 -12.74,-23.8 -38.5,-43 -67.99,-52.6 -78.51,-25.7 -383.25,0.8 -581.76,21.6 -120,12.7 -471.5,-15.5 -471.5,-15.5 -320.25,0 -684,85.5 -824.75,406.7 -178.24,406.5 9.26,893.8 311.5,1184.8 322.5,311 752.75,339 1144.01,135.2 949,-494.5 1020.74,-333.2 1264.24,-128.2 L 5740.12,4255 c 53.75,-18.8 101,-44.5 135,-80.3 23.25,-24.4 41,-47.2 54.01,-68.5 42.49,-68.4 38.49,-119.9 23.74,-154.5" /><path
         id="path186"
         style="fill:#b85643;fill-opacity:1;fill-rule:nonzero;stroke:none"
         d="m 5442.86,4286.4 c -529.76,167.3 -485.37,761 -142.98,962.2 -75.12,-119.3 -118.76,-264.7 -118.76,-424.1 0,-223.1 105.4,-410.6 261.74,-538.1" /><path
         id="path188"
         style="fill:#ee6f57;fill-opacity:1;fill-rule:nonzero;stroke:none"
         d="m 6617.62,4722 c -77.24,-271.5 -204.74,-427 -335.49,-513.5 -121.75,-81.3 -245.76,-102.5 -335.25,-102.5 -80.51,0 -160.51,12.7 -237.01,37 -291,91.5 -528.75,346.5 -528.75,681.5 0,423 307.25,747.2 694,747.2 442.75,0 880,-365.5 742.5,-849.7" /><path
         id="path190"
         style="fill:#1d1f39;fill-opacity:1;fill-rule:nonzero;stroke:none"
         d="m 5946.88,4106 c -4.95,0 -9.73,0 -14.61,0.1 4.87,-0.1 9.74,-0.1 14.61,-0.1 89.49,0 213.5,21.2 335.25,102.5 v 0 C 6160.38,4127.2 6036.37,4106 5946.88,4106" /><path
         id="path192"
         style="fill:#b85643;fill-opacity:1;fill-rule:nonzero;stroke:none"
         d="m 5946.88,4106 c -4.87,0 -9.74,0 -14.61,0.1 -1.04,0.1 -2.09,0.1 -3.14,0.1 -13.01,21.3 -30.76,44.1 -54.01,68.5 -34,35.8 -81.25,61.5 -135,80.3 32.81,6.7 61.82,9.1 86.6,9.1 64.9,0 100.9,-16.6 100.9,-16.6 0,0 77.79,38.7 169.26,38.7 61.94,0 130.14,-17.7 184.74,-77.2 l 0.51,-0.5 C 6160.38,4127.2 6036.37,4106 5946.88,4106" /><path
         id="path194"
         style="fill:#ee6f57;fill-opacity:1;fill-rule:nonzero;stroke:none"
         d="m 5869.19,4087.4 c -38.5,-55.4 -31.63,-132.6 21.99,-173.6 12.44,-9.5 25.61,-15.8 38.63,-15.8 h 381.42 c 18.23,0 27.95,19.5 32.89,44.9 14.83,76.3 -17.19,153.7 -76.69,203.8 -123.05,103.4 -286.99,100.9 -398.24,-59.3" /><path
         id="path196"
         style="fill:#3c1c16;fill-opacity:1;fill-rule:nonzero;stroke:none"
         d="m 5181.01,4292.4 c 77.27,3.4 154.33,0.2 231.31,-6.7 76.98,-6.9 153.55,-19.6 229.14,-38.2 37.77,-9.4 75,-21.4 111.39,-36.2 36.24,-14.9 72.2,-31.8 104.9,-54.9 32.54,-22.9 62.46,-51.7 82.59,-87.5 19.74,-36.1 26.34,-78.8 19.44,-117.9 l -13.95,1.5 c 1.4,37.1 -6.93,73.7 -27.11,103.6 -19.29,30.3 -47.3,54.8 -78.46,74.3 -62.55,39.3 -134.62,64 -207.69,82.7 -72.99,19.9 -148.31,31.6 -223.69,42.4 -75.49,10.2 -151.71,17.6 -227.87,22.8 v 14.1" /><path
         id="path198"
         style="fill:#3c1c16;fill-opacity:1;fill-rule:nonzero;stroke:none"
         d="m 3907.98,5045.4 c 76.31,-12.4 152.25,-39.2 215.8,-87.4 30.84,-24.8 59.26,-54.2 78.9,-89.3 20.13,-34.6 34.58,-72.5 42.53,-111.5 7.52,-39.1 10.45,-78.8 9.05,-118.2 -1.88,-39.4 -7.15,-78.3 -14.64,-116.7 -15.81,-76.7 -40.32,-150.9 -70.71,-222.4 -15.04,-35.9 -32.02,-70.9 -50.54,-105.2 l -7.11,-12.8 -3.73,-6.6 -0.24,-0.4 c 1.67,-5.6 -16.01,47.4 -8.3,24.9 l 0.82,-0.4 1.65,-0.6 3.29,-1.3 26.43,-10.4 c 17.67,-6.8 35.57,-13 53.53,-19 71.95,-23.8 146.11,-40.6 221.06,-52.4 74.66,-10.6 153.03,-19 228.11,-37.9 37.66,-9.5 75.13,-20.8 110.91,-37.7 17.91,-8.2 35.34,-18.7 50.55,-33.1 7.22,-7.4 14.53,-16.2 17.26,-27.6 4.02,-11.2 0.45,-23.6 -4.26,-33.4 l -12.35,6.7 c 7.51,15 0.59,30.4 -12.75,41.7 -13.21,11.3 -29.45,20.5 -46.72,27.4 -34.3,14.5 -71.24,23.8 -108.27,31.6 -74.5,16.5 -149.43,22.4 -226.92,31.3 -77.01,9.9 -153.02,27.5 -227.16,50.9 -18.49,6 -36.93,12.2 -55.15,19 l -27.26,10.4 -3.4,1.3 -1.69,0.7 -0.85,0.3 c 7.51,-22.3 -10.77,30.6 -8.75,25.3 l 0.2,0.4 3.36,6 6.71,12.4 c 17.67,33.3 33.69,67.8 48.88,102.5 30.22,69.4 54.6,141.5 70.43,215.1 7.5,36.9 12.83,74.1 14.92,111.4 1.33,37.3 0.13,74.6 -6.13,111.1 -12.88,72.6 -49.15,140.8 -106.94,187.6 -57.11,47.5 -129.24,75.9 -203.21,92.5 l 2.69,13.8" /><path
         id="path200"
         style="fill:#3c1c16;fill-opacity:1;fill-rule:nonzero;stroke:none"
         d="m 6079.97,4942.5 c 26.72,-49.2 62.93,-93.2 111.26,-108.3 23.95,-7.5 49.99,-9.5 76.9,-6.5 13.4,1.3 26.84,4.9 40.69,6.9 13.47,4 27.09,8 41.4,11.2 l 6.88,-14 c -12.51,-8.2 -25.7,-15.7 -39.06,-23.1 -14.35,-5.2 -28.45,-12 -43.8,-15.2 -30.43,-7.8 -64.11,-7.5 -95.81,2.2 -31.8,10 -59.41,31.2 -78.19,56.9 -18.89,25.8 -31.26,54.8 -35.28,85.9 l 15.01,4" /><path
         id="path202"
         style="fill:#3c1c16;fill-opacity:1;fill-rule:nonzero;stroke:none"
         d="m 5644.84,5130.4 c 22.83,-51.1 55.51,-97.8 102.52,-116.6 23.29,-9.4 49.1,-13.3 76.17,-12.4 13.45,0.2 27.14,2.8 41.11,3.7 13.73,2.9 27.62,5.8 42.14,7.9 l 5.77,-14.5 c -13.11,-7.2 -26.84,-13.6 -40.74,-20 -14.71,-4.1 -29.29,-9.7 -44.84,-11.8 -30.94,-5.4 -64.5,-2.4 -95.35,9.7 -30.94,12.4 -56.81,35.7 -73.54,62.8 -16.83,27.2 -26.92,57 -28.52,88.3 l 15.28,2.9" /><path
         id="path204"
         style="fill:#8cbfbe;fill-opacity:1;fill-rule:nonzero;stroke:none"
         d="m 14884.8,10977.7 h 422.4 l -337.3,2184 h -422.5 l 337.4,-2184" /><path
         id="path206"
         style="fill:#c6eae9;fill-opacity:1;fill-rule:nonzero;stroke:none"
         d="m 15307.6,10977.7 h 422.4 l -337.3,2184 h -422.5 l 337.4,-2184" /><g
         transform="scale(1.07043)"
         id="g208"><path
           id="path210"
           style="fill:#8cbfbe;fill-opacity:1;fill-rule:nonzero;stroke:none"
           d="m 16300,10255.7 h -1456.5 v 937 H 16300 v -937" /></g><g
         transform="scale(1.04283)"
         id="g212"><path
           id="path214"
           style="fill:#ffffff;fill-opacity:1;fill-rule:nonzero;stroke:none"
           d="m 16300,11008 h -632.2 v 168.5 H 16300 V 11008" /></g><path
         id="path216"
         style="fill:#c6eae9;fill-opacity:1;fill-rule:nonzero;stroke:none"
         d="m 14547.4,10978 h -733.7 v 2843.8 h 733.7 V 10978" /><g
         transform="scale(1.0926)"
         id="g218"><path
           id="path220"
           style="fill:#8cbfbe;fill-opacity:1;fill-rule:nonzero;stroke:none"
           d="m 16300,9758.56 h -4018.6 v 289.04 H 16300 v -289.04" /></g><g
         transform="scale(1.01217)"
         id="g222"><path
           id="path224"
           style="fill:#ffffff;fill-opacity:1;fill-rule:nonzero;stroke:none"
           d="m 11428.4,14905.5 c 0,-770.1 -624.3,-1394.5 -1394.4,-1394.5 -770.16,0 -1394.48,624.4 -1394.48,1394.5 0,770.2 624.32,1394.5 1394.48,1394.5 770.1,0 1394.4,-624.3 1394.4,-1394.5" /></g><g
         transform="scale(1.0137)"
         id="g226"><path
           id="path228"
           style="fill:#708cd5;fill-opacity:1;fill-rule:nonzero;stroke:none"
           d="m 11411.1,14883 h -24.6 c 0,-377.8 -153,-719.6 -400.5,-967.1 -247.6,-247.6 -589.5,-400.6 -967.2,-400.6 -377.75,0 -719.52,153 -967.1,400.6 -247.55,247.5 -400.58,589.3 -400.59,967.1 0.01,377.7 153.04,719.5 400.59,967.1 247.58,247.5 589.35,400.6 967.1,400.6 377.7,0 719.6,-153.1 967.2,-400.6 247.5,-247.6 400.5,-589.4 400.5,-967.1 h 24.6 24.7 c 0,782.6 -634.4,1417 -1417,1417 -782.6,0 -1417.01,-634.4 -1417.01,-1417 0,-782.6 634.4,-1417 1417.01,-1417.1 782.6,0.1 1417,634.5 1417,1417.1 h -24.7" /></g><path
         id="path230"
         style="fill:#102048;fill-opacity:1;fill-rule:nonzero;stroke:none"
         d="m 10714.3,14793.8 -603.2,286.8 659,580.4 33.1,-37.5 -602.1,-530.3 534.7,-254.2 -21.5,-45.2" /><path
         id="path232"
         style="fill:#c6eae9;fill-opacity:1;fill-rule:nonzero;stroke:none"
         d="M 5670.39,12462.4 H 3471.55 c -170.44,0 -308.62,138.1 -308.62,308.6 v 1236.2 c 0,170.5 138.18,308.6 308.62,308.6 h 2198.84 c 170.45,0 308.62,-138.1 308.62,-308.6 V 12771 c 0,-170.5 -138.17,-308.6 -308.62,-308.6" /><path
         id="path234"
         style="fill:#8cbfbe;fill-opacity:1;fill-rule:nonzero;stroke:none"
         d="M 5622.71,13675.5 H 3519.23 v 175.2 h 2103.48 v -175.2" /><path
         id="path236"
         style="fill:#f4fbfb;fill-opacity:1;fill-rule:nonzero;stroke:none"
         d="m 3519.23,13301.5 h 2103.49 v 175.18 H 3519.23 Z" /><path
         id="path238"
         style="fill:#f4fbfb;fill-opacity:1;fill-rule:nonzero;stroke:none"
         d="m 3519.23,12927.6 h 2103.49 v 175.191 H 3519.23 Z" /><path
         id="path240"
         style="fill:#fbc343;fill-opacity:1;fill-rule:nonzero;stroke:none"
         d="m 3874.66,10586.8 -399.8,312.6 h 799.6 z" /><path
         id="path242"
         style="fill:#fbc343;fill-opacity:1;fill-rule:nonzero;stroke:none"
         d="M 4382.26,10899.2 H 2183.43 c -170.44,0 -308.63,138.2 -308.63,308.6 V 12444 c 0,170.5 138.19,308.6 308.63,308.6 h 2198.83 c 170.45,0 308.63,-138.1 308.63,-308.6 v -1236.2 c 0,-170.4 -138.18,-308.6 -308.63,-308.6" /><path
         id="path244"
         style="fill:#fef3d9;fill-opacity:1;fill-rule:nonzero;stroke:none"
         d="m 2470.49,11358 h 272.613 v 336.949 H 2470.49 Z" /><path
         id="path246"
         style="fill:#fef3d9;fill-opacity:1;fill-rule:nonzero;stroke:none"
         d="m 2908.21,11358 h 272.609 v 712.059 H 2908.21 Z" /><path
         id="path248"
         style="fill:#fef3d9;fill-opacity:1;fill-rule:nonzero;stroke:none"
         d="m 3365.4,11358 h 272.613 v 550.359 H 3365.4 Z" /><path
         id="path250"
         style="fill:#fef3d9;fill-opacity:1;fill-rule:nonzero;stroke:none"
         d="m 3822.59,11358 h 272.621 v 935.797 H 3822.59 Z" /></g></g></svg>